<svg width="14" height="14" viewBox="0 0 14 14" fill="none" xmlns="http://www.w3.org/2000/svg">
<path d="M1.16699 4.88655C1.16699 4.6822 1.16699 4.58002 1.17552 4.49396C1.25776 3.66391 1.9144 3.00727 2.74445 2.92503C2.83051 2.9165 2.9382 2.9165 3.15358 2.9165C3.23657 2.9165 3.27807 2.9165 3.3133 2.91437C3.76318 2.88712 4.15713 2.60318 4.32524 2.185C4.33841 2.15225 4.35071 2.11534 4.37533 2.0415C4.39994 1.96767 4.41224 1.93075 4.42541 1.898C4.59352 1.47983 4.98747 1.19588 5.43735 1.16864C5.47258 1.1665 5.5115 1.1665 5.58932 1.1665H8.41133C8.48916 1.1665 8.52807 1.1665 8.5633 1.16864C9.01318 1.19588 9.40713 1.47983 9.57524 1.898C9.58841 1.93075 9.60071 1.96767 9.62533 2.0415C9.64994 2.11534 9.66224 2.15225 9.67541 2.185C9.84352 2.60318 10.2375 2.88712 10.6873 2.91437C10.7226 2.9165 10.7641 2.9165 10.8471 2.9165C11.0624 2.9165 11.1701 2.9165 11.2562 2.92503C12.0863 3.00727 12.7429 3.66391 12.8251 4.49396C12.8337 4.58002 12.8337 4.6822 12.8337 4.88655V9.44984C12.8337 10.4299 12.8337 10.92 12.6429 11.2943C12.4751 11.6236 12.2074 11.8913 11.8781 12.0591C11.5038 12.2498 11.0138 12.2498 10.0337 12.2498H3.96699C2.9869 12.2498 2.49685 12.2498 2.12251 12.0591C1.79323 11.8913 1.52551 11.6236 1.35773 11.2943C1.16699 10.92 1.16699 10.4299 1.16699 9.44984V4.88655Z" stroke="white" stroke-width="1.2" stroke-linecap="round" stroke-linejoin="round"/>
<path d="M7.00033 9.62484C8.28899 9.62484 9.33366 8.58017 9.33366 7.2915C9.33366 6.00284 8.28899 4.95817 7.00033 4.95817C5.71166 4.95817 4.66699 6.00284 4.66699 7.2915C4.66699 8.58017 5.71166 9.62484 7.00033 9.62484Z" stroke="white" stroke-width="1.2" stroke-linecap="round" stroke-linejoin="round"/>
</svg>
