<svg width="14" height="14" viewBox="0 0 14 14" fill="none" xmlns="http://www.w3.org/2000/svg">
<g clip-path="url(#clip0_377_1802)">
<path d="M7 0.816895C10.4148 0.816895 13.1834 3.58475 13.1836 6.99951C13.1836 10.4145 10.415 13.1831 7 13.1831C3.58522 13.1829 0.817383 10.4143 0.817383 6.99951C0.817616 3.58488 3.58536 0.817107 7 0.816895ZM7 5.81689C6.66887 5.81711 6.40048 6.08534 6.40039 6.4165V9.9165C6.40039 10.2477 6.66881 10.5159 7 10.5161C7.33137 10.5161 7.59961 10.2479 7.59961 9.9165V6.4165C7.59952 6.08521 7.33132 5.81689 7 5.81689ZM7 4.06689C6.66887 4.06711 6.40048 4.33534 6.40039 4.6665C6.40039 4.99774 6.66881 5.2659 7 5.26611H7.00586L7.12695 5.25439C7.40028 5.19838 7.60547 4.95639 7.60547 4.6665C7.60539 4.37669 7.40022 4.13462 7.12695 4.07861L7.00586 4.06689H7Z" fill="#FB923C"/>
</g>
<defs>
<clipPath id="clip0_377_1802">
<rect width="14" height="14" fill="white"/>
</clipPath>
</defs>
</svg>
