<svg width="27" height="27" viewBox="0 0 27 27" fill="none" xmlns="http://www.w3.org/2000/svg">
<path d="M4.95345 20.1201H22.2868C22.8826 20.1201 23.3701 19.6326 23.3701 19.0368C23.3701 18.441 22.8826 17.9535 22.2868 17.9535H4.95345C4.35762 17.9535 3.87012 18.441 3.87012 19.0368C3.87012 19.6326 4.35762 20.1201 4.95345 20.1201ZM4.95345 14.7035H22.2868C22.8826 14.7035 23.3701 14.216 23.3701 13.6201C23.3701 13.0243 22.8826 12.5368 22.2868 12.5368H4.95345C4.35762 12.5368 3.87012 13.0243 3.87012 13.6201C3.87012 14.216 4.35762 14.7035 4.95345 14.7035ZM3.87012 8.20345C3.87012 8.79928 4.35762 9.28678 4.95345 9.28678H22.2868C22.8826 9.28678 23.3701 8.79928 23.3701 8.20345C23.3701 7.60762 22.8826 7.12012 22.2868 7.12012H4.95345C4.35762 7.12012 3.87012 7.60762 3.87012 8.20345Z" fill="black" fill-opacity="0.54"/>
</svg>
