<svg width="24" height="24" viewBox="0 0 24 24" fill="none" xmlns="http://www.w3.org/2000/svg">
<path fill-rule="evenodd" clip-rule="evenodd" d="M12.0253 7.57794C12.0253 5.46383 13.7705 3.75 15.9233 3.75C18.0762 3.75 19.8214 5.46383 19.8214 7.57794C19.8214 9.69205 18.0762 11.4059 15.9233 11.4059C13.7705 11.4059 12.0253 9.69205 12.0253 7.57794Z" fill="#52525B"/>
<path d="M9.07992 17.6711C9.96614 14.7843 12.6946 12.6819 15.9232 12.6819C19.1519 12.6819 21.8804 14.7843 22.7666 17.6713C23.1056 18.7757 22.3256 19.8215 21.1891 20.0292C19.9781 20.2506 18.2028 20.47 15.9232 20.47C13.6436 20.47 11.8682 20.2505 10.6573 20.0291C9.52086 19.8213 8.74088 18.7755 9.07992 17.6711Z" fill="#52525B"/>
<path d="M7.00007 5.25C5.13431 5.25 3.62182 6.78752 3.62182 8.68415C3.62182 10.5808 5.13431 12.1183 7.00007 12.1183C8.86582 12.1183 10.3783 10.5808 10.3783 8.68415C10.3783 6.78752 8.86582 5.25 7.00007 5.25Z" fill="#52525B"/>
<path d="M6.99998 13.263C4.20192 13.263 1.8373 15.1491 1.06926 17.739C0.775436 18.7298 1.4514 19.668 2.4363 19.8544C3.48573 20.053 5.02438 20.25 6.99998 20.25C7.08998 20.25 7.17907 20.2496 7.26724 20.2488C6.65035 19.7273 6.33573 18.8872 6.58658 18.0156C7.0822 16.2933 8.10972 14.8127 9.46908 13.7832C8.71262 13.4486 7.87762 13.263 6.99998 13.263Z" fill="#52525B"/>
</svg>
